# xmcd CD database file
#
# Track frame offsets:
#	182
#	22745
#	50090
#	77620
#	119387
#	155065
#	189207
#
# Disc length: 2934 seconds
#
# Revision: 0
# Processed by: cddbd v1.4PL0 Copyright (c) Steve Scherf et al.
# Submitted via: CDex 1.50
#
DISCID=4d0b7407
DTITLE=Eric Watson - Broadway by twilight
DYEAR=1994
DGENRE=Jazz
TTITLE0=I should care
TTITLE1=Autumn leaves
TTITLE2=You don't know what love is
TTITLE3=All the things you are
TTITLE4=Body and soul
TTITLE5=Stella by starlight
TTITLE6=My funny Valentine
EXTD=YEAR: 1994
EXTT0=
EXTT1=
EXTT2=
EXTT3=
EXTT4=
EXTT5=
EXTT6=
PLAYORDER=
